# Blender 4.5.4 LTS
# www.blender.org
mtllib ligo.mtl
o Cube.001_Cube.006
v 1.625686 0.104485 -0.196314
v 1.625686 0.163764 -0.196314
v 1.625337 0.104485 0.090142
v 1.625337 0.163764 0.090142
v 0.090964 0.104485 -0.221307
v 0.090964 0.163764 -0.221307
v 0.090616 0.104485 0.065153
v 0.090616 0.163764 0.065153
v 1.590977 0.183812 -0.190405
v 1.590644 0.183812 0.083103
v 0.125324 0.183812 0.059240
v 0.125656 0.183812 -0.214264
vn 1.0000 -0.0000 0.0012
vn -0.0163 -0.0000 0.9999
vn -1.0000 -0.0000 -0.0012
vn 0.0163 -0.0000 -0.9999
vn -0.0000 -1.0000 -0.0000
vn -0.0155 0.3074 0.9515
vn -0.0000 1.0000 -0.0000
vn -0.5002 0.8659 -0.0006
vn 0.5002 0.8659 0.0006
vn 0.0155 0.3074 -0.9515
vt 0.375000 0.000000
vt 0.625000 0.000000
vt 0.625000 0.250000
vt 0.375000 0.250000
vt 0.625000 0.500000
vt 0.375000 0.500000
vt 0.625000 0.750000
vt 0.375000 0.750000
vt 0.625000 1.000000
vt 0.375000 1.000000
vt 0.125000 0.500000
vt 0.125000 0.750000
vt 0.875000 0.500000
vt 0.875000 0.750000
s 1
usemtl None
f 1/1/1 2/2/1 4/3/1 3/4/1
f 3/4/2 4/3/2 8/5/2 7/6/2
f 7/6/3 8/5/3 6/7/3 5/8/3
f 5/8/4 6/7/4 2/9/4 1/10/4
f 3/11/5 7/6/5 5/8/5 1/12/5
f 8/5/6 4/3/6 10/3/6 11/5/6
f 11/5/7 10/13/7 9/14/7 12/7/7
f 6/7/8 8/5/8 11/5/8 12/7/8
f 4/3/9 2/2/9 9/2/9 10/3/9
f 2/9/10 6/7/10 12/7/10 9/9/10
o Cube.002_Cube.004
v 0.112633 0.104485 1.613515
v 0.112633 0.163764 1.613515
v -0.169604 0.104485 1.629913
v -0.169604 0.163764 1.629913
v 0.116636 0.104485 0.066141
v 0.116636 0.163764 0.066141
v -0.165601 0.104485 0.082540
v -0.165601 0.163764 0.082540
v 0.108046 0.181821 1.588278
v -0.164885 0.181821 1.604136
v -0.161014 0.181821 0.107777
v 0.111917 0.181821 0.091918
vn 0.0580 -0.0000 0.9983
vn -1.0000 -0.0000 -0.0026
vn -0.0580 -0.0000 -0.9983
vn 1.0000 -0.0000 0.0026
vn -0.0000 -1.0000 -0.0000
vn 0.0336 0.8157 0.5775
vn -0.0000 1.0000 -0.0000
vn 0.9684 0.2495 0.0025
vn -0.9684 0.2495 -0.0025
vn -0.0336 0.8157 -0.5775
vt 0.375000 0.000000
vt 0.625000 0.000000
vt 0.625000 0.250000
vt 0.375000 0.250000
vt 0.625000 0.500000
vt 0.375000 0.500000
vt 0.625000 0.750000
vt 0.375000 0.750000
vt 0.625000 1.000000
vt 0.375000 1.000000
vt 0.125000 0.500000
vt 0.125000 0.750000
vt 0.875000 0.500000
vt 0.875000 0.750000
s 1
usemtl None
f 13/15/11 14/16/11 16/17/11 15/18/11
f 15/18/12 16/17/12 20/19/12 19/20/12
f 19/20/13 20/19/13 18/21/13 17/22/13
f 17/22/14 18/21/14 14/23/14 13/24/14
f 15/25/15 19/20/15 17/22/15 13/26/15
f 16/17/16 14/16/16 21/16/16 22/17/16
f 23/19/17 22/27/17 21/28/17 24/21/17
f 14/23/18 18/21/18 24/21/18 21/23/18
f 20/19/19 16/17/19 22/17/19 23/19/19
f 18/21/20 20/19/20 23/19/20 24/21/20
o Cube_Cube.001
v -0.296826 0.044115 0.263065
v -0.296826 0.296403 0.263065
v -0.296826 0.044115 -0.287962
v -0.296826 0.296403 -0.287962
v 0.260154 0.044115 0.263065
v 0.260154 0.296403 0.263065
v 0.260154 0.044115 -0.287962
v 0.260154 0.296403 -0.287962
v -0.251732 0.313923 0.218453
v -0.251732 0.313923 -0.243350
v 0.215062 0.313923 -0.243350
v 0.215062 0.313923 0.218453
vn -1.0000 -0.0000 -0.0000
vn -0.0000 -0.0000 -1.0000
vn 1.0000 -0.0000 -0.0000
vn -0.0000 -0.0000 1.0000
vn -0.0000 -1.0000 -0.0000
vn -0.3621 0.9321 -0.0000
vn -0.0000 1.0000 -0.0000
vn -0.0000 0.9308 0.3655
vn -0.0000 0.9308 -0.3655
vn 0.3622 0.9321 -0.0000
vt 0.375000 0.000000
vt 0.625000 0.000000
vt 0.625000 0.250000
vt 0.375000 0.250000
vt 0.625000 0.500000
vt 0.375000 0.500000
vt 0.625000 0.750000
vt 0.375000 0.750000
vt 0.625000 1.000000
vt 0.375000 1.000000
vt 0.125000 0.500000
vt 0.125000 0.750000
vt 0.875000 0.500000
vt 0.875000 0.750000
s 1
usemtl None
f 25/29/21 26/30/21 28/31/21 27/32/21
f 27/32/22 28/31/22 32/33/22 31/34/22
f 31/34/23 32/33/23 30/35/23 29/36/23
f 29/36/24 30/35/24 26/37/24 25/38/24
f 27/39/25 31/34/25 29/36/25 25/40/25
f 28/31/26 26/30/26 33/30/26 34/31/26
f 35/33/27 34/41/27 33/42/27 36/35/27
f 26/37/28 30/35/28 36/35/28 33/37/28
f 32/33/29 28/31/29 34/31/29 35/33/29
f 30/35/30 32/33/30 35/33/30 36/35/30
